<svg xmlns="http://www.w3.org/2000/svg" width="1200" height="600" viewBox="0 0 1200 600">
  <defs>
    <linearGradient id="sahelSky" x1="0%" y1="0%" x2="0%" y2="100%">
      <stop offset="0%" style="stop-color:#F39C12;stop-opacity:1" />
      <stop offset="50%" style="stop-color:#E67E22;stop-opacity:1" />
      <stop offset="100%" style="stop-color:#D35400;stop-opacity:1" />
    </linearGradient>
    <linearGradient id="sahelDune" x1="0%" y1="0%" x2="100%" y2="100%">
      <stop offset="0%" style="stop-color:#E4C59E;stop-opacity:1" />
      <stop offset="50%" style="stop-color:#D87C4A;stop-opacity:1" />
      <stop offset="100%" style="stop-color:#C9A86A;stop-opacity:1" />
    </linearGradient>
  </defs>
  
  <rect width="1200" height="350" fill="url(#sahelSky)"/>
  
  <circle cx="900" cy="150" r="80" fill="#FFD700" opacity="0.9">
    <animate attributeName="r" values="75;85;75" dur="4s" repeatCount="indefinite"/>
  </circle>
  <circle cx="900" cy="150" r="100" fill="#FFD700" opacity="0.3"/>
  
  <path d="M 0 400 Q 200 320 400 380 T 800 380 T 1200 350 L 1200 600 L 0 600 Z" 
        fill="url(#sahelDune)" opacity="0.9"/>
  <path d="M 0 450 Q 300 380 600 420 T 1200 400 L 1200 600 L 0 600 Z" 
        fill="#B87333" opacity="0.7"/>
  <path d="M 0 500 Q 250 450 500 480 T 1000 480 T 1200 460 L 1200 600 L 0 600 Z" 
        fill="#8B4513" opacity="0.5"/>
  
  <circle cx="100" cy="450" r="3" fill="#2C5F2D"/>
  <circle cx="350" cy="420" r="3" fill="#2C5F2D"/>
  <circle cx="650" cy="440" r="3" fill="#2C5F2D"/>
  <circle cx="950" cy="410" r="3" fill="#2C5F2D"/>
</svg>